<svg width="20" height="20" viewBox="0 0 16 16" fill="none" xmlns="http://www.w3.org/2000/svg">
<path d="M5.76111 14.5154C5.45994 14.5154 5.16615 14.4859 4.88234 14.4297L4.7853 14.9202C4.12933 14.7904 3.51949 14.5324 2.98303 14.1732L3.26119 13.7577C2.77024 13.429 2.34745 13.0062 2.01877 12.5153L1.60328 12.7935C1.24413 12.257 0.98605 11.6472 0.856279 10.9912L1.34677 10.8942C1.29063 10.6103 1.26111 10.3166 1.26111 10.0154V8.76538H0.761108V6.26538H1.26111V5.01538C1.26111 4.71421 1.29063 4.42042 1.34677 4.13661L0.856279 4.03957C0.98605 3.3836 1.24413 2.77376 1.60328 2.2373L2.01877 2.51546C2.34745 2.02452 2.77024 1.60172 3.26119 1.27304L2.98303 0.857554C3.51949 0.498404 4.12932 0.240322 4.7853 0.110551L4.88233 0.601045C5.16615 0.544898 5.45993 0.515381 5.76111 0.515381H7.04358V0.0153809H9.60852V0.515381H10.891C11.1922 0.515381 11.486 0.544898 11.7698 0.601045L11.8668 0.110551C12.5228 0.240322 13.1326 0.498404 13.6691 0.857553L13.3909 1.27304C13.8819 1.60172 14.3047 2.02452 14.6333 2.51546L15.0488 2.2373C15.408 2.77376 15.6661 3.3836 15.7958 4.03957L15.3053 4.13661C15.3615 4.42042 15.391 4.71421 15.391 5.01538V6.26538H15.891V8.76538H15.391V10.0154C15.391 10.3166 15.3615 10.6103 15.3053 10.8942L15.7958 10.9912C15.6661 11.6472 15.408 12.257 15.0488 12.7935L14.6333 12.5153C14.3047 13.0062 13.8819 13.429 13.3909 13.7577L13.6691 14.1732C13.1326 14.5324 12.5228 14.7904 11.8668 14.9202L11.7698 14.4297C11.486 14.4859 11.1922 14.5154 10.891 14.5154H9.60853V15.0154H7.04358V14.5154H5.76111Z" fill="#C5C5C5" fill-opacity="0.22" stroke="#C5C5C5" stroke-dasharray="2 2"/>
<path opacity="0.4" d="M8.68535 6.79C9.12535 6.79 9.52869 6.88333 9.89535 7.07C10.262 7.25 10.552 7.51 10.7654 7.85C10.9854 8.18333 11.0954 8.56667 11.0954 9C11.0954 9.47333 10.972 9.89333 10.7254 10.26C10.4854 10.62 10.1554 10.9 9.73535 11.1C9.32202 11.2933 8.85869 11.39 8.34535 11.39C7.34535 11.39 6.55535 11.0933 5.97535 10.5C5.39535 9.90667 5.10535 9.05333 5.10535 7.94C5.10535 7.14 5.25869 6.45333 5.56535 5.88C5.87869 5.3 6.31535 4.86 6.87535 4.56C7.43535 4.26 8.08535 4.11 8.82535 4.11C9.22535 4.11 9.60535 4.15333 9.96535 4.24C10.3254 4.32667 10.632 4.45333 10.8854 4.62L10.1654 6.04C9.82535 5.8 9.39535 5.68 8.87535 5.68C8.36869 5.68 7.95869 5.82 7.64535 6.1C7.33202 6.38 7.15202 6.78333 7.10535 7.31C7.50535 6.96333 8.03202 6.79 8.68535 6.79ZM8.22535 9.98C8.50535 9.98 8.73202 9.9 8.90535 9.74C9.08535 9.58 9.17535 9.36333 9.17535 9.09C9.17535 8.82333 9.08535 8.61 8.90535 8.45C8.73202 8.29 8.50202 8.21 8.21535 8.21C7.92869 8.21 7.69535 8.29333 7.51535 8.46C7.33535 8.62 7.24535 8.83333 7.24535 9.1C7.24535 9.36 7.33202 9.57333 7.50535 9.74C7.68535 9.9 7.92535 9.98 8.22535 9.98Z" fill="white"/>
</svg>
